<svg viewBox="0 0 34 24" fill="none" xmlns="http://www.w3.org/2000/svg">
  <path d="M0.46967 12.5303C0.176777 12.2374 0.176777 11.7626 0.46967 11.4697C0.762563 11.1768 1.23744 11.1768 1.53033 11.4697L0.46967 12.5303ZM6.03033 15.9697C6.32322 16.2626 6.32322 16.7374 6.03033 17.0303C5.73744 17.3232 5.26256 17.3232 4.96967 17.0303L6.03033 15.9697ZM1.53033 11.4697L6.03033 15.9697L4.96967 17.0303L0.46967 12.5303L1.53033 11.4697Z" fill="currentColor"></path>
  <path d="M0.46967 11.4697C0.176777 11.7626 0.176777 12.2374 0.46967 12.5303C0.762563 12.8232 1.23744 12.8232 1.53033 12.5303L0.46967 11.4697ZM6.03033 8.03033C6.32322 7.73744 6.32322 7.26256 6.03033 6.96967C5.73744 6.67678 5.26256 6.67678 4.96967 6.96967L6.03033 8.03033ZM1.53033 12.5303L6.03033 8.03033L4.96967 6.96967L0.46967 11.4697L1.53033 12.5303Z" fill="currentColor"></path>
  <path d="M1 11.25C0.585786 11.25 0.25 11.5858 0.25 12C0.25 12.4142 0.585786 12.75 1 12.75L1 11.25ZM33 12.75C33.4142 12.75 33.75 12.4142 33.75 12C33.75 11.5858 33.4142 11.25 33 11.25L33 12.75ZM1 12.75L33 12.75L33 11.25L1 11.25L1 12.75Z" fill="currentColor"></path>
</svg>