<svg viewBox="0 0 50 49" fill="none" xmlns="http://www.w3.org/2000/svg">
<path d="M35.2002 0.700195C37.6666 0.700232 39.4663 1.40005 40.5996 2.7998C41.7996 4.1331 42.4004 5.79989 42.4004 7.7998C42.4004 9.79974 41.8335 11.9666 40.7002 14.2998C39.5669 16.6331 37.8333 18.7669 35.5 20.7002C33.2334 22.6335 30.4 24.1335 27 25.2002C27.5333 25.4668 28.0334 25.6335 28.5 25.7002C29.0333 25.7669 29.5004 25.7998 29.9004 25.7998C31.8336 25.7998 33.6333 25.3996 35.2998 24.5996C37.0331 23.7329 38.7337 23.1002 40.4004 22.7002C40.7336 22.6336 41.0672 22.5996 41.4004 22.5996C41.7336 22.533 42.0672 22.5 42.4004 22.5C44.0002 22.5001 45.3338 23.0001 46.4004 24C47.5335 24.9999 48.3332 26.3666 48.7998 28.0996C48.9998 28.8995 49.0996 29.6332 49.0996 30.2998C49.0996 32.3663 48.3 33.9663 46.7002 35.0996C45.1669 36.1662 43.2336 36.7001 40.9004 36.7002C38.2337 36.7002 35.3665 35.9337 32.2998 34.4004C29.2999 32.8005 26.667 30.3002 24.4004 26.9004C24.3338 27.1668 24.2998 27.3998 24.2998 27.5996V27.7998C24.2998 29.3331 24.6332 30.7334 25.2998 32C25.9665 33.2 26.7 34.3667 27.5 35.5C28.3666 36.5666 29.0663 37.6666 29.5996 38.7998C30.1329 39.8665 30.4004 40.9333 30.4004 42C30.4004 44.4667 29.1 46.3669 26.5 47.7002C25.8334 48.0335 25.2335 48.2671 24.7002 48.4004C24.1669 48.5337 23.6668 48.5996 23.2002 48.5996C21.1335 48.5996 19.4669 47.6665 18.2002 45.7998C16.9335 43.8665 16.2998 41.5331 16.2998 38.7998C16.2998 36.7332 16.7 34.5664 17.5 32.2998C18.3 30.0332 19.5665 27.8664 21.2998 25.7998C19.5666 25.8665 18.1333 26.4004 17 27.4004C15.9334 28.4003 15.0331 29.5332 14.2998 30.7998C13.6331 32.0665 12.9665 33.1333 12.2998 34C10.6332 36.2665 8.60008 37.4003 6.2002 37.4004C5.53353 37.4004 4.8998 37.2996 4.2998 37.0996C3.69991 36.8329 3.0999 36.3997 2.5 35.7998C0.966731 34.4665 0.200195 32.8996 0.200195 31.0996C0.200293 29.4998 0.800098 27.9995 2 26.5996C3.19999 25.133 4.86678 23.9333 7 23C9.13333 22.0667 11.5335 21.5996 14.2002 21.5996C15.5334 21.5996 16.8999 21.7334 18.2998 22C19.6997 22.2666 21.1331 22.6999 22.5996 23.2998C21.7996 21.6333 20.6667 20.4664 19.2002 19.7998C17.7335 19.1331 16.1996 18.6671 14.5996 18.4004C12.9997 18.0671 11.5334 17.6329 10.2002 17.0996C7.26686 15.8329 5.7998 13.8329 5.7998 11.0996C5.79984 10.5665 5.86675 10.0001 6 9.40039C6.13332 8.80046 6.30003 8.23348 6.5 7.7002C7.16663 6.16695 8.00008 5.06707 9 4.40039C10.0667 3.66705 11.2333 3.2998 12.5 3.2998C14.4999 3.2998 16.5331 4.13331 18.5996 5.7998C20.6663 7.46647 22.3669 9.76686 23.7002 12.7002C25.0335 15.6335 25.6004 19.0338 25.4004 22.9004C26.6003 21.9005 27.3998 20.8334 27.7998 19.7002C28.1998 18.5002 28.4004 17.2667 28.4004 16C28.4004 14.6667 28.2667 13.3333 28 12C27.8 10.6667 27.7002 9.43314 27.7002 8.2998C27.7002 5.96656 28.3669 4.1331 29.7002 2.7998C31.0335 1.39994 32.867 0.700195 35.2002 0.700195Z" fill="#482B25"/>
</svg>
