<svg width="26" height="95" viewBox="0 0 26 95" fill="none" xmlns="http://www.w3.org/2000/svg">
  <path
    d="M4.75861 5.07242C4.75861 5.07242 6.79294 4.43374 6.82911 3.11924C6.86527 1.80473 5.87674 1.08314 4.86912 1.05542C3.8615 1.0277 2.83162 1.80969 2.79865 3.00836C2.76567 4.20702 4.75861 5.07242 4.75861 5.07242ZM4.75861 5.07242C4.75861 5.07242 0.775831 10.7413 0.723785 17.5M6.99993 32.5C6.99993 32.5 8.29882 34.5517 6.99993 36.5C5.70105 38.4483 1.49993 36 1.49993 36C1.49993 36 3.49993 36.125 4.99993 35C6.49993 33.875 6.99993 32.5 6.99993 32.5ZM6.99993 32.5C1.49982 27 0.706318 19.7683 0.723785 17.5M6.99993 32.5C12.5 38 19 44.5 18.9999 54.5M18.9999 54.5C18.9995 72.5 8.5 91 8.5 91M18.9999 54.5C18.9999 54.5 17 55.625 15.5 56C14 56.375 12 56 12 56C12 56 13 60 16.5 59C20 58 18.9999 54.5 18.9999 54.5ZM18.9999 54.5C18.9999 54.5 20 56 21.5 56C23.0001 56 24.5 55 24.5 55C24.5 55 24 58.5 21.5 58.5C19 58.5 18.9999 54.5 18.9999 54.5ZM8.5 91C8.5 91 7.00008 90.5 6.50011 91.5C6.00014 92.5 6.50021 94 7.50011 94C8.5 94 8.83959 94 9.50013 93C10.1607 92 8.5 91 8.5 91ZM18.4998 16C18.4998 16 14.5555 18.6504 8.99982 19C3.4441 19.3497 1.08449 14 1.08449 14C1.08449 14 2.93259 22.2681 8.49982 21.5C14.067 20.732 18.4998 16 18.4998 16ZM18.4998 16C18.4998 16 14.4998 24 8.49982 24C2.49982 24 0.723785 17.5 0.723785 17.5"
    stroke="#482B25" />
</svg>
  