<svg viewBox="0 0 80 80" fill="none" xmlns="http://www.w3.org/2000/svg">
<!-- <rect width="80" height="80" fill="#F8E7D5"/> -->
<path d="M53 11C55.96 11 58.1205 11.8395 59.4805 13.5195C60.9204 15.1195 61.6406 17.1196 61.6406 19.5195C61.6406 21.9194 60.9605 24.5195 59.6006 27.3193C58.2406 30.1193 56.1604 32.68 53.3604 35C50.6404 37.3199 47.2401 39.1194 43.1602 40.3994C43.8001 40.7194 44.4 40.92 44.96 41C45.6 41.08 46.1606 41.1191 46.6406 41.1191C48.9604 41.1191 51.1203 40.6396 53.1201 39.6797C55.2001 38.6397 57.2402 37.8794 59.2402 37.3994C59.6402 37.3194 60.0404 37.2793 60.4404 37.2793C60.8403 37.1993 61.2407 37.1592 61.6406 37.1592C63.5604 37.1593 65.1605 37.76 66.4404 38.96C67.8003 40.1599 68.7604 41.8001 69.3203 43.8799C69.5603 44.8397 69.6807 45.7196 69.6807 46.5195C69.6807 48.9995 68.7198 50.9193 66.7998 52.2793C64.9598 53.5592 62.6398 54.1992 59.8398 54.1992C56.64 54.1991 53.2003 53.2793 49.5205 51.4395C45.9205 49.5195 42.76 46.5195 40.04 42.4395C39.9601 42.7593 39.9199 43.0393 39.9199 43.2793V43.5195C39.9199 45.3595 40.3201 47.0396 41.1201 48.5596C41.9201 49.9995 42.7998 51.3998 43.7598 52.7598C44.7998 54.0398 45.6403 55.3597 46.2803 56.7197C46.9202 57.9997 47.2402 59.2796 47.2402 60.5596C47.2402 63.5195 45.6803 65.7994 42.5605 67.3994C41.7606 67.7994 41.0403 68.0792 40.4004 68.2393C39.7605 68.3992 39.1605 68.4795 38.6006 68.4795C36.1206 68.4795 34.1206 67.3591 32.6006 65.1191C31.0807 62.7992 30.3203 59.9996 30.3203 56.7197C30.3203 54.2399 30.7999 51.6397 31.7598 48.9199C32.7198 46.1999 34.2403 43.5991 36.3203 41.1191C34.2404 41.1991 32.5201 41.8392 31.1602 43.0391C29.8802 44.239 28.7999 45.5992 27.9199 47.1191C27.1199 48.6391 26.3205 49.92 25.5205 50.96C23.5205 53.6799 21.0801 55.0391 18.2002 55.0391C17.4002 55.0391 16.6399 54.9197 15.9199 54.6797C15.2 54.3597 14.4797 53.8391 13.7598 53.1191C11.9201 51.5192 11 49.6393 11 47.4795C11 45.5595 11.7202 43.7591 13.1602 42.0791C14.6001 40.3192 16.6003 38.8797 19.1602 37.7598C21.72 36.6398 24.6 36.0791 27.7998 36.0791C29.3998 36.0791 31.0407 36.2396 32.7207 36.5596C34.4004 36.8796 36.1202 37.3993 37.8799 38.1191C36.9199 36.1194 35.5597 34.7199 33.7998 33.9199C32.0399 33.12 30.2002 32.5592 28.2803 32.2393C26.3603 31.8393 24.6 31.3197 23 30.6797C19.4801 29.1597 17.7207 26.7595 17.7207 23.4795C17.7207 22.8395 17.8 22.1594 17.96 21.4395C18.12 20.7195 18.3205 20.0394 18.5605 19.3994C19.3605 17.5595 20.3606 16.2394 21.5605 15.4395C22.8403 14.5597 24.24 14.1192 25.7598 14.1191C28.1597 14.1191 30.6002 15.1193 33.0801 17.1191C35.5601 19.1191 37.6002 21.8795 39.2002 25.3994C40.8002 28.9194 41.4802 32.9996 41.2402 37.6396C42.6801 36.4397 43.6401 35.1597 44.1201 33.7998C44.6001 32.3598 44.8398 30.8794 44.8398 29.3594C44.8398 27.7595 44.6803 26.1595 44.3604 24.5596C44.1203 22.9596 44 21.4791 44 20.1191C44.0001 17.3193 44.8005 15.1195 46.4004 13.5195C48.0003 11.8396 50.2002 11 53 11Z" fill="#ED1C24"/>
</svg>
